<svg style="position: absolute; width: 0; height: 0; overflow: hidden;" version="1.1" xmlns="http://www.w3.org/2000/svg" xmlns:xlink="http://www.w3.org/1999/xlink">
	<defs>
		<symbol id="icon-search" viewBox="0 0 24 24">
			<path d="M15.5 14h-.79l-.28-.27C15.41 12.59 16 11.11 16 9.5 16 5.91 13.09 3 9.5 3S3 5.91 3 9.5 5.91 16 9.5 16c1.61 0 3.09-.59 4.23-1.57l.27.28v.79l5 4.99L20.49 19l-4.99-5zm-6 0C7.01 14 5 11.99 5 9.5S7.01 5 9.5 5 14 7.01 14 9.5 11.99 14 9.5 14z"/>
	    	<path d="M0 0h24v24H0z" fill="none"/>
    	</symbol>
    	<symbol id="icon-user" viewBox="0 0 24 24">
				<path d="M12,6c1.1,0,2,0.9,2,2s-0.9,2-2,2s-2-0.9-2-2S10.9,6,12,6 M12,16c2.7,0,5.8,1.29,6,2H6C6.23,17.28,9.31,16,12,16 M12,4 C9.79,4,8,5.79,8,8s1.79,4,4,4s4-1.79,4-4S14.21,4,12,4L12,4z M12,14c-2.67,0-8,1.34-8,4v2h16v-2C20,15.34,14.67,14,12,14L12,14z"/>
		</symbol>
		<symbol id="icon-user-account" viewBox="0 0 24 24">
			<path d="M12 2C6.48 2 2 6.48 2 12s4.48 10 10 10 10-4.48 10-10S17.52 2 12 2zm0 3c1.66 0 3 1.34 3 3s-1.34 3-3 3-3-1.34-3-3 1.34-3 3-3zm0 14.2c-2.5 0-4.71-1.28-6-3.22.03-1.99 4-3.08 6-3.08 1.99 0 5.97 1.09 6 3.08-1.29 1.94-3.5 3.22-6 3.22z"/>
			<path d="M0 0h24v24H0z" fill="none"/>
		</symbol>
		<symbol id="icon-basket" viewBox="0 0 24 24">
			<path d="M22,9h-4.79l-4.38-6.56C12.64,2.16,12.32,2.02,12,2.02s-0.64,0.14-0.83,0.43L6.79,9H2c-0.55,0-1,0.45-1,1 c0,0.09,0.01,0.18,0.04,0.27l2.54,9.27C3.81,20.38,4.58,21,5.5,21h13c0.92,0,1.69-0.62,1.93-1.46l2.54-9.27L23,10 C23,9.45,22.55,9,22,9z M12,4.8l2.8,4.2H9.2L12,4.8z M18.5,19L5.51,19.01L3.31,11H20.7L18.5,19z"/>
		<path d="M12,13c-1.1,0-2,0.9-2,2c0,1.1,0.9,2,2,2s2-0.9,2-2C14,13.9,13.1,13,12,13z"/>
		</symbol>
		<symbol id="icon-close" viewBox="0 0 24 24">
			<path d="M19 6.41L17.59 5 12 10.59 6.41 5 5 6.41 10.59 12 5 17.59 6.41 19 12 13.41 17.59 19 19 17.59 13.41 12z"/>
			<path d="M0 0h24v24H0z" fill="none"/>
		</symbol>
		<symbol id="icon-add" viewBox="0 0 24 24">
			<path d="M19 13h-6v6h-2v-6H5v-2h6V5h2v6h6v2z"/>
			<path d="M0 0h24v24H0z" fill="none"/>
		</symbol>
		<symbol id="icon-remove" viewBox="0 0 24 24">
			<path d="M19,13H5v-2h14V13z"/>
		</symbol>
		<symbol id="icon-arrow-right" viewBox="0 0 24 24">
			<path d="M8.59,16.59L13.17,12L8.59,7.41L10,6l6,6l-6,6L8.59,16.59z"/>
			<path fill="none" d="M0,0h24v24H0V0z"/>
		</symbol>
	</defs>
</svg>